<?xml version="1.0" encoding="iso-8859-1"?>
<!-- Generator: Adobe Illustrator 19.0.0, SVG Export Plug-In . SVG Version: 6.00 Build 0)  -->
<svg version="1.1" id="Layer_1" xmlns="http://www.w3.org/2000/svg" xmlns:xlink="http://www.w3.org/1999/xlink" x="0px" y="0px"
	 viewBox="0 0 473.931 473.931" style="enable-background:new 0 0 473.931 473.931;" xml:space="preserve">
<circle style="fill:#D62127;" cx="236.966" cy="236.966" r="236.966"/>
<path style="fill:#EE4344;" d="M273.336,239.589l92.74-107.658c10.114-11.742,8.793-29.463-2.952-39.577
	c-11.73-10.106-29.451-8.793-39.573,2.949l-87.254,101.286L149.053,95.303c-10.114-11.749-27.835-13.062-39.58-2.949
	s-13.059,27.835-2.945,39.577l92.732,107.658l-92.732,107.658c-10.114,11.742-8.801,29.463,2.945,39.577
	c5.298,4.565,11.816,6.799,18.308,6.799c7.876,0,15.719-3.308,21.276-9.747L236.3,282.589l87.25,101.286
	c5.545,6.447,13.388,9.747,21.276,9.747c6.481,0,13.003-2.238,18.301-6.799c11.745-10.114,13.066-27.835,2.952-39.577
	L273.336,239.589z"/>
<g>
</g>
<g>
</g>
<g>
</g>
<g>
</g>
<g>
</g>
<g>
</g>
<g>
</g>
<g>
</g>
<g>
</g>
<g>
</g>
<g>
</g>
<g>
</g>
<g>
</g>
<g>
</g>
<g>
</g>
</svg>
