<?xml version="1.0" encoding="iso-8859-1"?>
<!-- Generator: Adobe Illustrator 19.0.0, SVG Export Plug-In . SVG Version: 6.00 Build 0)  -->
<svg xmlns="http://www.w3.org/2000/svg" xmlns:xlink="http://www.w3.org/1999/xlink" version="1.1" id="Capa_1" x="0px" y="0px" viewBox="0 0 473.371 473.371" style="enable-background:new 0 0 473.371 473.371;" xml:space="preserve" width="512px" height="512px">
<g>
	<g>
		<path d="M300.685,169.371c-4.418,0-8,3.582-8,8c0,13.255-10.745,24-24,24c-13.255,0-24-10.745-24-24v-0.08    c3.378-1.171,6.451-3.085,8.992-5.6c3.124-3.126,3.122-8.192-0.004-11.316c-3.126-3.124-8.192-3.122-11.316,0.004    c-3.161,3.034-8.151,3.034-11.312,0c-3.124-3.126-8.19-3.128-11.316-0.004s-3.128,8.19-0.004,11.316l-0.016,0.024    c2.541,2.515,5.614,4.429,8.992,5.6l-0.016,0.056c0,13.255-10.745,24-24,24s-24-10.745-24-24c0-4.418-3.582-8-8-8s-8,3.582-8,8    c0.026,22.08,17.92,39.974,40,40c1.711-0.059,3.416-0.233,5.104-0.52c7.527,14.854,25.671,20.794,40.525,13.267    c5.721-2.899,10.368-7.546,13.267-13.267c1.688,0.287,3.393,0.461,5.104,0.52c22.08-0.026,39.974-17.92,40-40    C308.685,172.953,305.103,169.371,300.685,169.371z M228.387,214.681c-1.217-0.881-2.285-1.949-3.166-3.166    c4.46-2.686,8.354-6.216,11.464-10.392c3.11,4.176,7.004,7.706,11.464,10.392C243.566,217.846,234.719,219.264,228.387,214.681z" fill="#FFFFFF"/>
	</g>
</g>
<g>
	<g>
		<path d="M188.685,97.371c-17.673,0-32,14.327-32,32c0,4.418,3.582,8,8,8s8-3.582,8-8c0-8.837,7.163-16,16-16s16,7.163,16,16    c0,4.418,3.582,8,8,8s8-3.582,8-8C220.685,111.698,206.358,97.371,188.685,97.371z" fill="#FFFFFF"/>
	</g>
</g>
<g>
	<g>
		<path d="M284.685,97.371c-17.673,0-32,14.327-32,32c0,4.418,3.582,8,8,8s8-3.582,8-8c0-8.837,7.163-16,16-16s16,7.163,16,16    c0,4.418,3.582,8,8,8s8-3.582,8-8C316.685,111.698,302.358,97.371,284.685,97.371z" fill="#FFFFFF"/>
	</g>
</g>
<g>
	<g>
		<path d="M388.685,410.387v-39.872c0.067-23.354-9.215-45.765-25.776-62.232l-22.224-22.224v-63    c15.478-19.941,23.917-44.445,24-69.688V23.995C364.682,10.74,353.935-0.003,340.68,0c-6.362,0.001-12.463,2.529-16.963,7.027    l-36.248,36.248c-32.578-13.214-69.022-13.214-101.6,0L149.653,7.027c-9.374-9.371-24.57-9.369-33.941,0.005    c-4.498,4.499-7.026,10.601-7.027,16.963v129.376c0.083,25.243,8.522,49.747,24,69.688v63l-6.848,6.848    c-11.16-17.857-17.101-38.479-17.152-59.536c0-13.255-10.745-24-24-24s-24,10.745-24,24v12.8    c0.084,32.975,10.714,65.058,30.336,91.56c-4.191,10.427-6.342,21.562-6.336,32.8v39.872    c-17.103,4.452-27.359,21.926-22.907,39.029c3.664,14.077,16.361,23.911,30.907,23.939h288c17.673,0,32-14.326,32.001-31.999    C412.686,426.779,402.814,414.035,388.685,410.387z M335.029,18.339c3.125-3.124,8.19-3.123,11.314,0.002    c1.499,1.5,2.342,3.534,2.342,5.654v71.408c-11.187-18.654-27.059-34.057-46.04-44.68L335.029,18.339z M124.685,23.995    c0.001-4.418,3.583-7.999,8.002-7.998c2.121,0,4.154,0.843,5.654,2.342l32.384,32.384c-18.981,10.623-34.853,26.026-46.04,44.68    V23.995z M124.685,153.371c0-47.016,33.8-86.8,80-99.624v19.624c0,4.418,3.582,8,8,8s8-3.582,8-8V50.555    c10.608-1.579,21.392-1.579,32,0v22.816c0,4.418,3.582,8,8,8s8-3.582,8-8V53.747c46.2,12.824,80,52.608,80,99.624    c-0.107,23.497-8.581,46.186-23.904,64h-0.096v0.12c-42.61,48.601-116.551,53.458-165.152,10.848    c-3.849-3.375-7.473-6.998-10.848-10.848v-0.12h-0.096C133.267,199.557,124.792,176.867,124.685,153.371z M76.685,246.171v-12.8    c0-4.418,3.582-8,8-8s8,3.582,8,8c0.07,25.287,7.583,49.994,21.6,71.04l-3.864,3.872c-4.14,4.139-7.862,8.675-11.112,13.544    C84.587,299.338,76.726,273.051,76.685,246.171z M113.133,457.371H92.685c-8.837,0-16-7.163-16-16s7.163-16,16-16    c4.418,0,8-3.582,8-8v-46.856c-0.053-19.108,7.541-37.444,21.088-50.92l10.912-10.912v101.704    c-14.119,3.663-23.983,16.398-24,30.984C108.718,447.005,110.254,452.528,113.133,457.371z M332.685,457.371h-24    c-13.255,0-24-10.745-24-24v-96h-16v96c0.029,8.684,2.914,17.117,8.208,24h-80.416c5.294-6.883,8.179-15.316,8.208-24v-96h-16v96    c0,13.255-10.745,24-24,24h-24c-8.837,0-16-7.163-16-16s7.163-16,16-16c4.418,0,8-3.582,8-8v-177.08    c50.378,44.102,125.622,44.102,176,0v177.08c0,4.418,3.582,8,8,8c8.837,0,16,7.163,16,16S341.522,457.371,332.685,457.371z     M380.685,457.371h-20.448c2.879-4.843,4.415-10.366,4.448-16c-0.017-14.586-9.881-27.321-24-30.984V308.683l10.912,10.912    c13.547,13.476,21.141,31.812,21.088,50.92v46.856c0,4.418,3.582,8,8,8c8.837,0,16,7.163,16,16S389.522,457.371,380.685,457.371z" fill="#FFFFFF"/>
	</g>
</g>
<g>
</g>
<g>
</g>
<g>
</g>
<g>
</g>
<g>
</g>
<g>
</g>
<g>
</g>
<g>
</g>
<g>
</g>
<g>
</g>
<g>
</g>
<g>
</g>
<g>
</g>
<g>
</g>
<g>
</g>
</svg>
