<?xml version="1.0" encoding="iso-8859-1"?>
<!-- Generator: Adobe Illustrator 19.0.0, SVG Export Plug-In . SVG Version: 6.00 Build 0)  -->
<svg xmlns="http://www.w3.org/2000/svg" xmlns:xlink="http://www.w3.org/1999/xlink" version="1.1" id="Layer_1" x="0px" y="0px" viewBox="0 0 511.999 511.999" style="enable-background:new 0 0 511.999 511.999;" xml:space="preserve" width="512px" height="512px">
<g>
	<g>
		<path d="M277.241,36.6c-0.08-0.011-0.162-0.017-0.243-0.027c-0.024-0.002-0.048-0.005-0.072-0.009    c-3.961-0.503-7.973-0.761-11.935-0.761H236.57c-5.77,0-11.456,0.694-16.979,2.045l-36.26-34.858    c-4.266-4.101-11.051-3.968-15.152,0.299c-4.102,4.266-3.968,11.051,0.299,15.152l29.689,28.541    c-4.265,2.719-8.22,5.897-11.825,9.478l-23.373-22.466c-4.267-4.102-11.051-3.967-15.153,0.299    c-4.101,4.266-3.967,11.051,0.299,15.152l25.347,24.365c-5.428,10.225-8.275,21.595-8.275,33.365v47.721v56.756v203.51v86.119    c0,3.574,1.782,6.912,4.751,8.902c1.791,1.2,3.872,1.814,5.967,1.814c1.377,0,2.762-0.266,4.072-0.805    c29.382-12.077,49.124-44.273,49.124-80.117c0-5.102-0.4-10.163-1.179-15.128c24.342-9.645,45.35-25.76,61.152-47.053    c18.107-24.399,27.678-53.4,27.678-83.867c0-31.606-10.693-62.382-30.178-87.119v-3.404c26.166-4.394,52.752-23.461,58.896-48.194    h10.988c5.919,0,10.717-4.798,10.717-10.717v-9.098C367.175,78.061,320.48,42.12,277.241,36.6z M186.621,481.932v-59.901    c6.394-3.217,12.442-7.152,18.108-11.78c0.147,0.511,0.314,1.012,0.45,1.528c1.653,6.207,2.49,12.7,2.49,19.299    C207.668,451.441,199.628,470.116,186.621,481.932z M295.32,285.031c0,48.642-28.99,91.651-73.137,110.122    c-0.257-0.634-0.518-1.268-0.789-1.895c17.316-21.846,26.783-49.91,26.783-79.85c0-18.637-3.638-36.475-10.813-53.021    c-2.356-5.43-8.668-7.923-14.096-5.567c-5.43,2.354-7.923,8.666-5.568,14.096c6,13.837,9.043,28.806,9.043,44.492    c0,26.844-9.465,52.749-25.968,71.071c-4.371,4.855-9.103,9.074-14.156,12.632V211.654v-56.756v-47.721    c0-10.446,3.185-20.439,9.215-28.907c6.074-8.541,14.484-14.859,24.332-18.276c5.244-1.829,10.762-2.756,16.404-2.756h28.421    c0.049,0,0.1,0.002,0.15,0.002v78.358v40.48c-1.607-1.319-3.234-2.614-4.899-3.862c-4.736-3.55-11.453-2.589-15.003,2.147    c-3.55,4.736-2.59,11.453,2.145,15.003c7.475,5.604,14.286,12.064,20.246,19.201C285.487,229.955,295.32,257.111,295.32,285.031z     M286.575,172.643v-26.329h36.208C316.859,158.729,301.592,169.022,286.575,172.643z M336.076,124.881h-49.5V60.367    c29.897,8.518,58.178,33.778,59.142,64.514H336.076z" fill="#FFFFFF"/>
	</g>
</g>
<g>
	<g>
		<path d="M221.37,233.524c-1.403-1.771-2.87-3.517-4.363-5.189c-3.943-4.414-10.717-4.797-15.132-0.854    c-4.414,3.944-4.797,10.718-0.853,15.132c1.209,1.354,2.398,2.769,3.535,4.206c2.115,2.675,5.248,4.069,8.414,4.069    c2.328,0,4.672-0.755,6.64-2.312C224.254,244.905,225.04,238.166,221.37,233.524z" fill="#FFFFFF"/>
	</g>
</g>
<g>
	<g>
		<path d="M241.297,85.53c-5.919,0-10.717,4.799-10.717,10.717v6.955c0,5.919,4.798,10.717,10.717,10.717    c5.919,0,10.717-4.798,10.717-10.717v-6.955C252.014,90.329,247.216,85.53,241.297,85.53z" fill="#FFFFFF"/>
	</g>
</g>
<g>
</g>
<g>
</g>
<g>
</g>
<g>
</g>
<g>
</g>
<g>
</g>
<g>
</g>
<g>
</g>
<g>
</g>
<g>
</g>
<g>
</g>
<g>
</g>
<g>
</g>
<g>
</g>
<g>
</g>
</svg>
